<svg version="1.1" id="Layer_1" xmlns="http://www.w3.org/2000/svg" xmlns:xlink="http://www.w3.org/1999/xlink" x="0px" y="0px"
	 width="100%" viewBox="0 0 512 512" enable-background="new 0 0 512 512" xml:space="preserve">
<path fill="#000000" opacity="1.000000" stroke="none" 
	d="
M1.000000,449.000000 
	C1.000000,417.979095 1.000000,386.958221 1.159362,355.693298 
	C1.800277,356.232239 1.533036,357.492767 3.340572,357.926300 
	C4.350793,352.248657 4.240970,346.717804 3.404210,340.754639 
	C1.402403,342.048706 1.995186,343.910583 1.000000,345.000000 
	C1.000000,248.312439 1.000000,151.624878 1.351475,54.588585 
	C5.008924,54.178154 8.314760,54.107471 11.620901,54.056618 
	C18.404408,53.952282 20.215052,52.856564 22.003996,46.400471 
	C23.359016,41.510353 25.837484,37.474304 29.836065,34.583286 
	C37.132652,29.307775 45.004883,24.468658 53.646530,22.393490 
	C66.857910,19.220963 79.110298,13.727536 91.703049,9.033985 
	C95.097519,7.768804 97.701752,5.289021 100.603043,2.661339 
	C99.079491,1.958839 98.039749,1.479419 97.000000,1.000000 
	C218.020889,1.000000 339.041779,1.000000 460.329407,1.170496 
	C459.246826,2.237647 459.351776,3.309741 459.755585,4.793374 
	C463.053345,16.910116 468.615662,27.062174 481.649139,31.050394 
	C482.417480,31.285490 483.202057,31.774176 483.755646,32.357075 
	C489.728699,38.646973 496.968109,37.518570 504.266937,35.877148 
	C508.011566,35.035030 509.030182,32.967052 507.441772,29.256977 
	C504.258331,21.821381 498.654388,16.496025 492.750977,11.327811 
	C486.983215,6.278394 479.413818,4.762648 473.000000,1.000000 
	C486.321564,1.000000 499.643158,1.000000 513.000000,1.000000 
	C513.000000,152.687561 513.000000,304.375122 512.609375,456.533997 
	C510.926453,457.288055 509.229126,457.143890 508.407562,457.923065 
	C503.169922,462.890594 496.330597,462.976715 489.912079,464.412598 
	C487.329498,464.990356 484.779114,465.676880 482.680786,467.558380 
	C472.334991,476.835114 461.913239,486.027100 451.562103,495.297882 
	C447.687195,498.768372 445.696198,509.028656 448.000000,513.000000 
	C320.312439,513.000000 192.624878,513.000000 64.467941,512.732910 
	C63.961159,510.781067 62.312801,510.585144 61.442776,509.666809 
	C59.228500,507.329559 58.471909,504.359650 60.774452,502.074493 
	C64.887077,497.992950 63.145306,494.910034 60.189590,491.331787 
	C56.380936,486.721069 51.131943,483.261505 48.461529,477.805817 
	C42.043247,464.693237 31.131069,457.098663 17.714605,453.034790 
	C12.283433,451.389679 7.014117,448.442108 1.000000,449.000000 
M174.833221,228.003540 
	C189.966354,227.434662 196.901703,234.925247 195.035873,249.833221 
	C194.623444,253.128693 194.409424,256.468719 193.721008,259.706818 
	C188.919739,282.290192 182.518280,304.552490 181.656601,327.876007 
	C181.130341,342.120026 181.871780,356.064941 186.015411,369.804565 
	C192.157166,390.169647 212.458099,397.942566 231.145020,390.147858 
	C245.019302,384.360657 258.066864,377.000061 271.404419,370.161987 
	C282.626526,364.408417 290.925995,355.899506 298.155914,345.962463 
	C299.667145,343.885345 300.882996,341.501617 303.695068,339.595764 
	C304.320984,342.674286 304.842224,345.215759 305.354065,347.759155 
	C307.772247,359.775238 311.281555,371.305786 319.203400,381.068176 
	C324.495636,387.589966 331.000305,391.860901 339.459412,392.561218 
	C347.981110,393.266693 356.366364,392.501343 364.646057,390.062012 
	C386.471832,383.631744 405.733154,372.609100 422.353668,357.244324 
	C435.166687,345.399445 446.414520,332.223297 450.929718,314.689178 
	C452.438690,308.829285 452.809143,302.913391 451.593109,296.919342 
	C450.315002,290.619446 446.645050,289.047394 441.180786,292.549316 
	C438.032104,294.567261 435.721771,297.403625 433.438110,300.280914 
	C418.107239,319.597443 398.024475,332.425079 375.657593,341.867249 
	C367.169525,345.450531 363.282440,343.209534 360.803955,334.362122 
	C358.087463,324.665161 357.796936,314.625061 358.047546,304.644165 
	C358.733276,277.334442 361.959412,250.278595 366.548828,223.361115 
	C367.155426,219.803253 368.548859,218.433380 372.040863,218.624451 
	C383.506104,219.251801 394.996765,219.528366 406.437042,220.446243 
	C411.786743,220.875488 415.614258,219.575729 417.832275,214.592865 
	C421.042084,207.381912 422.908142,199.783005 423.546143,191.955933 
	C424.028473,186.038803 422.347717,184.473343 416.482086,184.371170 
	C409.817474,184.255066 403.147247,184.329697 396.487762,184.090149 
	C389.787079,183.849136 383.096619,183.323929 376.518982,182.930298 
	C376.229950,180.191010 377.529968,178.763397 378.400421,177.199844 
	C382.452393,169.921387 386.562653,162.675385 390.620514,155.400192 
	C391.753967,153.368073 393.090515,151.306107 392.422424,148.827469 
	C390.559174,141.914520 388.868622,134.895142 385.059387,128.731049 
	C380.329620,121.077316 373.958496,115.726990 364.325531,116.406609 
	C356.627472,116.949715 351.765503,122.200279 347.581055,127.906570 
	C336.385071,143.174454 330.199219,160.822144 324.377563,178.557693 
	C322.967957,182.852127 320.763611,184.477448 316.502075,184.333008 
	C312.175110,184.186325 307.831177,184.500900 303.507172,184.317978 
	C300.155426,184.176193 297.883972,185.538727 295.831848,188.057053 
	C290.670258,194.391281 288.770386,201.805634 287.721863,209.705338 
	C286.633575,217.905014 288.565735,220.456223 296.730164,220.635452 
	C301.789581,220.746490 306.915283,220.116486 311.620605,221.087158 
	C312.403534,223.063782 311.932404,224.325348 311.668243,225.634064 
	C307.359222,246.981003 303.137665,268.343903 302.310608,290.193207 
	C302.234650,292.200073 301.330933,293.645691 299.982086,294.973572 
	C287.752472,307.013428 276.239258,319.774719 263.473511,331.273773 
	C259.140808,335.176544 254.830475,339.138947 249.437531,341.597290 
	C246.383377,342.989502 243.049713,344.617920 239.960220,342.478119 
	C236.701462,340.221069 237.054260,336.467224 237.367706,332.898590 
	C238.555969,319.369629 243.015915,306.582825 246.349472,293.556244 
	C251.688217,272.693970 255.776245,251.688980 255.613953,230.050095 
	C255.466080,210.331223 244.407043,194.372345 226.070129,187.181458 
	C219.973969,184.790833 213.618973,183.509949 207.161148,182.814529 
	C185.223648,180.452225 165.023483,184.276871 148.153717,199.718323 
	C146.753922,200.999603 145.611832,202.874008 143.325409,202.705948 
	C141.592239,201.346512 140.999573,199.380234 140.082001,197.626755 
	C136.668808,191.104034 132.892456,184.833740 127.436165,179.767059 
	C117.480354,170.522095 107.487198,171.368088 99.295982,182.156860 
	C97.888000,184.011337 96.605904,185.966125 95.337677,187.921295 
	C73.762581,221.182709 65.229469,258.266113 63.390884,297.286224 
	C62.363377,319.093048 61.879570,340.917816 62.420383,362.743134 
	C62.642891,371.722931 63.524220,380.717957 67.128548,389.124115 
	C70.235016,396.369141 76.608742,400.237274 83.992401,398.374298 
	C97.864265,394.874298 110.612473,388.825470 121.534889,379.361664 
	C127.282227,374.381805 128.884323,368.090851 127.100586,360.830078 
	C125.513931,354.371521 123.814240,347.939972 122.294807,341.465881 
	C119.895012,331.240692 117.189270,320.788788 119.136749,310.388428 
	C123.324516,288.024017 132.362961,267.444580 145.262344,248.721298 
	C152.266479,238.554871 160.599319,229.689011 174.833221,228.003540 
z"/>
<path fill="#000000" opacity="1.000000" stroke="none" 
	d="
M1.000000,472.468658 
	C4.157249,477.989258 5.463750,484.858185 9.527301,490.398529 
	C16.226404,499.532257 24.400805,506.802643 35.444275,510.347778 
	C37.167782,510.901062 38.777054,511.810211 40.719574,512.777405 
	C27.739100,513.000000 14.478200,513.000000 1.000000,513.000000 
	C1.000000,499.646545 1.000000,486.291931 1.000000,472.468658 
z"/>
<path fill="#000000" opacity="1.000000" stroke="none" 
	d="
M39.531342,1.000000 
	C37.001343,3.888674 32.797028,4.276730 29.295496,6.159335 
	C16.587845,12.991626 7.594022,22.881475 3.301857,36.819630 
	C2.816253,38.396557 2.077069,39.895401 1.227736,41.715225 
	C1.000000,28.408512 1.000000,14.817023 1.000000,1.000000 
	C13.686671,1.000000 26.374678,1.000000 39.531342,1.000000 
z"/>
<path fill="#000000" opacity="1.000000" stroke="none" 
	d="
M474.468658,513.000000 
	C475.254791,512.223694 476.417786,511.181671 477.778351,510.711426 
	C494.772339,504.837952 505.696899,493.145111 511.202148,476.170380 
	C511.504150,475.239136 512.049744,474.386902 512.740967,473.248962 
	C513.000000,486.259064 513.000000,499.518097 513.000000,513.000000 
	C500.313293,513.000000 487.625305,513.000000 474.468658,513.000000 
z"/>
</svg>